<?xml version="1.0" standalone="no"?>
<!DOCTYPE svg PUBLIC "-//W3C//DTD SVG 20010904//EN"
 "http://www.w3.org/TR/2001/REC-SVG-20010904/DTD/svg10.dtd">
<svg version="1.0" xmlns="http://www.w3.org/2000/svg"
 width="1020.000000pt" height="1020.000000pt" viewBox="0 0 1020.000000 1020.000000"
 preserveAspectRatio="xMidYMid meet">
<metadata>
Created by potrace 1.11, written by Peter Selinger 2001-2013
</metadata>
<g transform="translate(0.000000,1020.000000) scale(0.100000,-0.100000)"
fill="#000000" stroke="none">
<path d="M0 5100 l0 -5100 5100 0 5100 0 0 5100 0 5100 -5100 0 -5100 0 0
-5100z m5853 3718 c9 -22 2828 -7060 2848 -7110 l19 -48 -793 0 -792 0 -310
810 -310 810 -1430 0 -1430 0 -254 -703 c-140 -386 -272 -750 -294 -809 l-39
-108 -769 0 c-430 0 -769 4 -769 9 0 10 2767 7116 2781 7144 9 16 56 17 773
17 602 0 765 -3 769 -12z"/>
<path d="M4587 5822 c-262 -722 -477 -1314 -477 -1317 0 -3 434 -5 965 -5 531
0 965 2 965 5 0 6 -941 2543 -964 2599 -11 28 -43 -55 -489 -1282z"/>
</g>
</svg>
